<?xml version="1.0" encoding="UTF-8"?>
<svg width="256px" height="256px" viewBox="0 0 256 256" version="1.1" xmlns="http://www.w3.org/2000/svg" xmlns:xlink="http://www.w3.org/1999/xlink">
    <g id="Page-1" stroke="none" stroke-width="1" fill="none" fill-rule="evenodd">
        <g id="iTunes-Icon" transform="translate(-272.000000, -187.000000)" fill="#FFFFFF">
            <path d="M400,187 C470.692448,187 528,244.307552 528,315 C528,385.692448 470.692448,443 400,443 C329.307552,443 272,385.692448 272,315 C272,244.307552 329.307552,187 400,187 Z M449.191853,229.97327 L372.865724,245.909495 C369.625314,246.586064 367.5,249.683165 367.5,252.999999 L367.500988,340.403759 C367.50134,340.418615 367.501724,340.438275 367.502023,340.462537 L367.502408,340.602122 C367.492654,342.314086 366.949495,352.938215 355,353.714205 C349.688594,354.059124 345.793145,355.143235 343.046555,356.388513 C335.36644,359.487224 330,366.54983 330,374.714205 C330,385.714205 339.5,393.214204 351.758242,393.214205 C364.016484,393.214207 377.5,388.504212 377.5,372.369996 L377.5,285.82413 L448,270.000001 L448.000988,324.033761 C448.00134,324.048617 448.001724,324.068276 448.002023,324.092539 L448.002408,324.232124 C447.992654,325.944088 447.449495,336.568216 435.5,337.344207 C430.188594,337.689126 426.293145,338.773237 423.546555,340.018515 C415.86644,343.117225 410.5,350.179832 410.5,358.344207 C410.5,369.344207 420,376.844205 432.258242,376.844207 C444.516484,376.844209 458,372.134214 458,355.999998 L458,237.135914 C458,232.171207 454.056458,228.957583 449.191853,229.97327 Z" id="Combined-Shape"></path>
        </g>
    </g>
</svg>